<?xml version="1.0" standalone="no"?>
<!DOCTYPE svg PUBLIC "-//W3C//DTD SVG 20010904//EN"
 "http://www.w3.org/TR/2001/REC-SVG-20010904/DTD/svg10.dtd">
<svg version="1.0" xmlns="http://www.w3.org/2000/svg"
 width="260.000000pt" height="260.000000pt" viewBox="0 0 260.000000 260.000000"
 preserveAspectRatio="xMidYMid meet">
<metadata>
Created by potrace 1.14, written by Peter Selinger 2001-2017
</metadata>
<g transform="translate(0.000000,260.000000) scale(0.100000,-0.100000)"
fill="#000000" stroke="none">
<path d="M0 1300 l0 -1300 1300 0 1300 0 0 1300 0 1300 -1300 0 -1300 0 0
-1300z m1461 837 c194 -45 339 -188 384 -379 19 -81 19 -228 0 -301 -44 -170
-173 -302 -346 -356 -41 -13 -75 -25 -77 -26 -2 -2 96 -139 218 -304 121 -166
223 -308 227 -316 5 -14 -20 -15 -188 -13 l-192 3 -221 322 -221 322 -3 -324
-2 -325 -160 0 -160 0 0 861 0 861 338 -5 c251 -4 354 -9 403 -20z"/>
<path d="M1040 1594 l0 -256 153 5 c176 5 230 20 287 77 45 45 64 106 58 197
-9 173 -103 233 -365 233 l-133 0 0 -256z"/>
</g>
</svg>
