<?xml version="1.0" encoding="UTF-8" standalone="no"?>
<!-- Created with Inkscape (http://www.inkscape.org/) -->

<svg
   width="135.46667mm"
   height="51.094242mm"
   viewBox="0 0 135.46667 51.094242"
   version="1.1"
   id="svg1"
   xmlns:inkscape="http://www.inkscape.org/namespaces/inkscape"
   xmlns:sodipodi="http://sodipodi.sourceforge.net/DTD/sodipodi-0.dtd"
   xmlns="http://www.w3.org/2000/svg"
   xmlns:svg="http://www.w3.org/2000/svg">
  <sodipodi:namedview
     id="namedview1"
     pagecolor="#ffffff"
     bordercolor="#000000"
     borderopacity="0.25"
     inkscape:showpageshadow="2"
     inkscape:pageopacity="0.0"
     inkscape:pagecheckerboard="0"
     inkscape:deskcolor="#d1d1d1"
     inkscape:document-units="mm" />
  <defs
     id="defs1" />
  <g
     inkscape:label="Layer 1"
     inkscape:groupmode="layer"
     id="layer1"
     transform="translate(-13.880378,-18.726512)">
    <g
       id="g4"
       transform="matrix(0.89338983,0,0,0.89338983,1.4797895,1.9964366)">
      <path
         id="rect3"
         style="stroke-width:0.255398"
         d="M 13.880378,18.726511 H 165.51258 V 75.91794 H 13.880378 Z" />
      <g
         id="text1"
         style="font-size:8.46667px;font-family:'URW Gothic';-inkscape-font-specification:'URW Gothic';fill:#ffffff;stroke-width:0.264583"
         aria-label="Rizqi Pratama&#10;Backend | Fullstack Developer">
        <path
           style="font-weight:bold;font-size:19.7556px;text-align:center;text-anchor:middle"
           d="m 26.053829,46.118553 h 2.706518 v -5.590835 l 3.832586,5.590835 h 3.338696 l -3.95112,-5.393279 c 1.12607,-0.276578 1.679226,-0.533401 2.311406,-1.066802 1.007535,-0.849491 1.501425,-1.995316 1.501425,-3.45723 0,-1.501426 -0.533401,-2.746028 -1.540937,-3.595519 -0.948268,-0.80998 -1.995315,-1.086558 -3.990631,-1.086558 h -4.207943 z m 2.706518,-7.625661 v -4.385744 h 1.205091 c 1.264359,0 1.955805,0.13829 2.390428,0.513646 0.474134,0.375356 0.711201,0.948269 0.711201,1.65947 0,1.540937 -0.889002,2.212628 -2.983095,2.212628 z m 8.47515,7.625661 h 2.627495 V 35.173951 h -2.627495 z m 0,-12.129938 h 2.627495 v -2.46945 h -2.627495 z m 4.128921,12.129938 h 8.336864 v -2.350916 h -5.195723 l 4.820366,-6.24277 v -2.350916 h -7.40835 v 2.350916 h 4.26721 l -4.820367,6.24277 z M 59.717353,35.173951 v 1.402647 c -0.84949,-1.145824 -1.955804,-1.65947 -3.556008,-1.65947 -3.081873,0 -5.511812,2.508961 -5.511812,5.689613 0,3.259674 2.410183,5.768635 5.551324,5.768635 1.34338,0 2.429938,-0.434623 3.299185,-1.30387 v 4.701833 h 2.627495 V 35.173951 Z m -3.180651,2.15336 c 1.778004,0 3.121385,1.442159 3.121385,3.358452 0,1.896538 -1.323626,3.27943 -3.141141,3.27943 -1.857026,0 -3.220163,-1.402648 -3.220163,-3.299185 0,-1.936049 1.382892,-3.338697 3.239919,-3.338697 z m 7.625658,8.791242 h 2.627495 V 35.173951 H 64.16236 Z m 0,-12.129938 h 2.627495 v -2.46945 H 64.16236 Z m 10.549501,12.129938 h 2.706517 V 40.56723 h 0.869246 c 2.074338,0 3.022607,-0.158045 3.832587,-0.651935 1.185336,-0.750713 1.916293,-2.212627 1.916293,-3.891853 0,-1.679226 -0.711202,-3.062118 -1.97556,-3.832587 -0.829735,-0.49389 -1.817515,-0.67169 -3.733808,-0.67169 h -3.615275 z m 2.706517,-8.139307 v -3.872098 h 0.908758 c 0.889002,0 1.303869,0.03951 1.718737,0.13829 0.790224,0.217311 1.264358,0.908757 1.264358,1.817515 0,0.711201 -0.316089,1.264358 -0.889002,1.580448 -0.414867,0.217311 -1.145825,0.335845 -2.212627,0.335845 z m 8.08003,8.139307 h 2.627495 v -6.084725 c -0.05927,-1.619959 0.770468,-2.528716 2.350916,-2.587983 v -2.528717 h -0.197556 c -1.126069,0 -1.679226,0.31609 -2.370672,1.323625 V 35.173951 H 85.498408 Z M 102.58698,35.173951 h -2.41018 v 1.461914 c -0.908761,-1.205091 -1.995319,-1.718737 -3.575767,-1.718737 -3.239918,0 -5.571079,2.429939 -5.571079,5.768635 0,3.299185 2.311405,5.689613 5.511812,5.689613 1.540937,0 2.587984,-0.474134 3.635034,-1.679226 v 1.422403 h 2.41018 z m -5.709369,2.15336 c 1.876782,0 3.220159,1.402648 3.220159,3.397963 0,0.790224 -0.316085,1.698982 -0.79022,2.252139 -0.533401,0.651935 -1.382892,0.98778 -2.390427,0.98778 -1.916294,0 -3.239919,-1.30387 -3.239919,-3.220163 0,-1.995316 1.323625,-3.417719 3.200407,-3.417719 z m 8.396129,8.791242 h 2.6275 v -8.554175 h 1.58045 v -2.390427 h -1.58045 v -3.654786 h -2.6275 v 3.654786 h -1.28411 v 2.390427 h 1.28411 z m 16.45641,-10.944602 h -2.41018 v 1.461914 c -0.90876,-1.205091 -1.99532,-1.718737 -3.57576,-1.718737 -3.23992,0 -5.57108,2.429939 -5.57108,5.768635 0,3.299185 2.3114,5.689613 5.51181,5.689613 1.54094,0 2.58798,-0.474134 3.63503,-1.679226 v 1.422403 h 2.41018 z m -5.70937,2.15336 c 1.87679,0 3.22017,1.402648 3.22017,3.397963 0,0.790224 -0.31609,1.698982 -0.79023,2.252139 -0.5334,0.651935 -1.38289,0.98778 -2.39042,0.98778 -1.9163,0 -3.23992,-1.30387 -3.23992,-3.220163 0,-1.995316 1.32362,-3.417719 3.2004,-3.417719 z m 7.66518,8.791242 h 2.62749 v -5.393279 c 0,-1.086558 0.0988,-1.817515 0.27658,-2.271894 0.31609,-0.730957 0.96803,-1.126069 1.87678,-1.126069 0.69145,0 1.30387,0.256823 1.65947,0.691446 0.31609,0.414868 0.45438,1.066803 0.45438,2.094094 v 6.005702 h 2.6275 v -5.393279 c 0,-1.224847 0.0988,-1.83727 0.37535,-2.350916 0.33585,-0.67169 1.00754,-1.047047 1.83727,-1.047047 0.65194,0 1.2051,0.237067 1.5607,0.671691 0.3556,0.414867 0.49389,1.027291 0.49389,2.113849 v 6.005702 h 2.62749 v -6.321792 c 0,-1.323625 -0.23707,-2.390427 -0.7112,-3.14114 -0.69145,-1.106314 -2.05458,-1.738493 -3.73381,-1.738493 -1.54094,0 -2.60774,0.513646 -3.49674,1.698982 -0.75071,-1.205092 -1.69898,-1.698982 -3.22016,-1.698982 -1.28412,0 -2.07434,0.355601 -2.84481,1.284114 v -1.027291 h -2.41018 z m 29.65316,-10.944602 h -2.41018 v 1.461914 c -0.90876,-1.205091 -1.99532,-1.718737 -3.57576,-1.718737 -3.23992,0 -5.57108,2.429939 -5.57108,5.768635 0,3.299185 2.3114,5.689613 5.51181,5.689613 1.54094,0 2.58798,-0.474134 3.63503,-1.679226 v 1.422403 h 2.41018 z m -5.70936,2.15336 c 1.87678,0 3.22016,1.402648 3.22016,3.397963 0,0.790224 -0.31609,1.698982 -0.79023,2.252139 -0.5334,0.651935 -1.38289,0.98778 -2.39042,0.98778 -1.9163,0 -3.23992,-1.30387 -3.23992,-3.220163 0,-1.995316 1.32362,-3.417719 3.20041,-3.417719 z"
           id="path3" />
        <path
           style="font-weight:bold;text-align:center;text-anchor:middle"
           d="m 27.053012,61.059418 h 1.667934 c 0.694267,0 1.202267,-0.110067 1.583268,-0.347134 0.516466,-0.313267 0.8128,-0.872067 0.8128,-1.515534 0,-0.397933 -0.110067,-0.770467 -0.3048,-1.024467 -0.1778,-0.237067 -0.3556,-0.3556 -0.762001,-0.524933 0.508001,-0.262467 0.694267,-0.584201 0.694267,-1.176867 0,-0.584201 -0.254,-1.075268 -0.7112,-1.363134 -0.372533,-0.237067 -0.762,-0.3048 -1.693334,-0.3048 h -1.286934 z m 1.159934,-1.109134 v -1.600201 h 0.550334 c 0.804333,0 1.185333,0.262467 1.185333,0.812801 0,0.550333 -0.347133,0.7874 -1.159933,0.7874 z m 0,-2.734735 v -1.278467 h 0.474134 c 0.6096,0 0.897467,0.2032 0.897467,0.635001 0,0.448733 -0.296334,0.643466 -0.999067,0.643466 z m 8.382003,-0.846667 h -1.032934 v 0.626534 c -0.389467,-0.516467 -0.855134,-0.7366 -1.532467,-0.7366 -1.388534,0 -2.387601,1.0414 -2.387601,2.472267 0,1.413934 0.9906,2.438401 2.362201,2.438401 0.6604,0 1.109133,-0.2032 1.557867,-0.719667 v 0.609601 h 1.032934 z m -2.446868,0.922867 c 0.804334,0 1.380067,0.601134 1.380067,1.456268 0,0.338667 -0.135466,0.728133 -0.338667,0.9652 -0.2286,0.2794 -0.592666,0.423334 -1.024467,0.423334 -0.821267,0 -1.388534,-0.558801 -1.388534,-1.380068 0,-0.855133 0.567267,-1.464734 1.371601,-1.464734 z m 6.646335,2.226735 c -0.279401,0.4318 -0.601134,0.618067 -1.066801,0.618067 -0.778934,0 -1.363134,-0.609601 -1.363134,-1.430868 0,-0.829733 0.550334,-1.413934 1.337734,-1.413934 0.508,0 0.8636,0.211667 1.092201,0.643467 h 1.27 c -0.160867,-0.474133 -0.313267,-0.719667 -0.635,-1.016 -0.4572,-0.423333 -1.075267,-0.6604 -1.727201,-0.6604 -1.388534,0 -2.472268,1.075267 -2.472268,2.455334 0,1.363134 1.117601,2.455334 2.506135,2.455334 1.100667,0 1.938867,-0.601133 2.328334,-1.651 z m 1.972726,1.540934 H 43.89321 V 58.86655 l 1.6002,2.192868 h 1.515534 L 45.06161,58.66335 46.738011,56.368882 H 45.39181 l -1.4986,2.209801 v -3.776134 h -1.126068 z m 9.152468,-1.845734 c 0.03387,-0.169334 0.04233,-0.270934 0.04233,-0.440267 0,-1.447801 -1.024467,-2.514601 -2.421467,-2.514601 -1.380067,0 -2.472268,1.0922 -2.472268,2.472267 0,1.371601 1.109134,2.438401 2.540001,2.438401 0.770467,0 1.371601,-0.2794 1.862668,-0.846667 0.1778,-0.220133 0.296333,-0.414866 0.372533,-0.651933 H 50.61574 c -0.287867,0.338667 -0.567267,0.465667 -1.032934,0.465667 -0.668867,0 -1.159934,-0.355601 -1.2954,-0.922867 z m -3.666068,-0.990601 c 0.1778,-0.6096 0.635,-0.931334 1.303867,-0.931334 0.694267,0 1.151467,0.330201 1.295401,0.931334 z m 4.436529,2.836335 h 1.126067 v -2.209801 c 0,-0.626534 0.04233,-0.897467 0.186267,-1.126067 0.1778,-0.2794 0.465667,-0.431801 0.829734,-0.431801 0.296333,0 0.524933,0.101601 0.677333,0.296334 0.1524,0.2032 0.220134,0.550334 0.220134,1.176867 v 2.294468 h 1.126067 v -2.514601 c 0,-0.838201 -0.08467,-1.244601 -0.338667,-1.608668 -0.3048,-0.440266 -0.8128,-0.677333 -1.464734,-0.677333 -0.541867,0 -0.905934,0.1524 -1.3208,0.5588 v -0.448734 h -1.041401 z m 9.812874,-6.256869 h -1.126067 v 1.9812 c -0.3302,-0.364067 -0.872067,-0.5842 -1.456267,-0.5842 -1.3208,0 -2.353734,1.100667 -2.353734,2.506134 0,1.397001 1.016,2.463801 2.353734,2.463801 0.635,0 1.0922,-0.211666 1.549401,-0.719667 v 0.609601 h 1.032933 z m -2.429934,2.429934 c 0.7874,0 1.388534,0.626533 1.388534,1.456267 0,0.8128 -0.601134,1.447801 -1.363134,1.447801 -0.7874,0 -1.397,-0.643467 -1.397,-1.481668 0,-0.804333 0.601133,-1.4224 1.3716,-1.4224 z m 8.263472,-2.429934 h -1.007534 v 8.322736 h 1.007534 z m 4.961479,6.256869 h 1.159933 v -2.565401 h 1.930401 v -1.109134 h -1.930401 v -1.473201 h 2.023535 v -1.109133 h -3.183468 z m 8.001,-4.690536 h -1.126067 v 2.209801 c 0,0.626534 -0.04233,0.922867 -0.177801,1.126067 -0.160866,0.279401 -0.474133,0.431801 -0.855133,0.431801 -0.287867,0 -0.508,-0.09313 -0.6604,-0.296334 -0.160867,-0.2032 -0.228601,-0.541867 -0.228601,-1.176867 v -2.294468 h -1.126067 v 2.514601 c 0,0.795867 0.09313,1.210734 0.3556,1.591734 0.313267,0.448734 0.812801,0.694267 1.430868,0.694267 0.567267,0 0.9144,-0.143933 1.3462,-0.5588 v 0.448734 h 1.041401 z m 0.905937,4.690536 h 1.126067 v -6.256869 h -1.126067 z m 2.031998,0 h 1.126067 v -6.256869 h -1.126067 z m 1.735668,-1.490134 c 0.0508,0.4572 0.127,0.702733 0.313266,0.948267 0.304801,0.4064 0.838201,0.651933 1.405468,0.651933 0.9398,0 1.6764,-0.702733 1.6764,-1.6002 0,-0.711201 -0.3556,-1.083734 -1.303867,-1.371601 -0.465667,-0.143933 -0.465667,-0.143933 -0.575733,-0.194733 -0.135467,-0.06773 -0.220134,-0.1778 -0.220134,-0.321734 0,-0.220133 0.186267,-0.389467 0.4318,-0.389467 0.237067,0 0.389467,0.127001 0.440267,0.372534 h 1.100667 c -0.01693,-0.397934 -0.110066,-0.635 -0.338666,-0.889 -0.296334,-0.330201 -0.736601,-0.516467 -1.202268,-0.516467 -0.880533,0 -1.557867,0.626533 -1.557867,1.430867 0,0.6858 0.364067,1.075267 1.303867,1.388534 0.423334,0.143933 0.465667,0.160867 0.5842,0.237067 0.135467,0.08467 0.211667,0.211666 0.211667,0.364066 0,0.262467 -0.211667,0.457201 -0.508,0.457201 -0.3302,0 -0.516467,-0.169334 -0.626534,-0.567267 z m 4.233329,1.490134 h 1.126067 V 57.39335 h 0.677333 v -1.024468 h -0.677333 v -1.566333 h -1.126067 v 1.566333 H 89.65556 v 1.024468 h 0.550334 z m 7.052735,-4.690536 h -1.032934 v 0.626534 c -0.389466,-0.516467 -0.855133,-0.7366 -1.532467,-0.7366 -1.388534,0 -2.387601,1.0414 -2.387601,2.472267 0,1.413934 0.990601,2.438401 2.362201,2.438401 0.6604,0 1.109134,-0.2032 1.557867,-0.719667 v 0.609601 h 1.032934 z m -2.446867,0.922867 c 0.804333,0 1.380067,0.601134 1.380067,1.456268 0,0.338667 -0.135467,0.728133 -0.338667,0.9652 -0.2286,0.2794 -0.592667,0.423334 -1.024467,0.423334 -0.821267,0 -1.388534,-0.558801 -1.388534,-1.380068 0,-0.855133 0.567267,-1.464734 1.371601,-1.464734 z m 6.646338,2.226735 c -0.2794,0.4318 -0.60113,0.618067 -1.0668,0.618067 -0.778934,0 -1.363134,-0.609601 -1.363134,-1.430868 0,-0.829733 0.550334,-1.413934 1.337734,-1.413934 0.508,0 0.8636,0.211667 1.0922,0.643467 h 1.27 c -0.16087,-0.474133 -0.31327,-0.719667 -0.635,-1.016 -0.4572,-0.423333 -1.07527,-0.6604 -1.7272,-0.6604 -1.388534,0 -2.472268,1.075267 -2.472268,2.455334 0,1.363134 1.117601,2.455334 2.506138,2.455334 1.10066,0 1.93886,-0.601133 2.32833,-1.651 z m 1.97272,1.540934 h 1.12607 V 58.86655 l 1.6002,2.192868 h 1.51554 l -1.94734,-2.396068 1.6764,-2.294468 h -1.3462 l -1.4986,2.209801 v -3.776134 h -1.12607 z m 7.39988,0 h 1.45627 c 0.94826,0 1.51553,-0.09313 2.02353,-0.347134 0.9652,-0.474133 1.53247,-1.507067 1.53247,-2.768601 0,-1.1938 -0.49107,-2.167467 -1.36314,-2.692401 -0.49106,-0.296333 -1.23613,-0.448733 -2.21826,-0.448733 h -1.43087 z m 1.15993,-1.109134 v -4.038602 h 0.2286 c 0.74507,0 1.13454,0.06773 1.4986,0.254 0.59267,0.304801 0.95674,0.973667 0.95674,1.778001 0,0.753534 -0.34714,1.422401 -0.90594,1.727201 -0.34713,0.186267 -0.82973,0.2794 -1.524,0.2794 z m 9.29641,-0.7366 c 0.0339,-0.169334 0.0423,-0.270934 0.0423,-0.440267 0,-1.447801 -1.02447,-2.514601 -2.42147,-2.514601 -1.38007,0 -2.47227,1.0922 -2.47227,2.472267 0,1.371601 1.10913,2.438401 2.54,2.438401 0.77047,0 1.3716,-0.2794 1.86267,-0.846667 0.1778,-0.220133 0.29633,-0.414866 0.37253,-0.651933 h -1.22767 c -0.28786,0.338667 -0.56726,0.465667 -1.03293,0.465667 -0.66887,0 -1.15993,-0.355601 -1.2954,-0.922867 z m -3.66607,-0.990601 c 0.1778,-0.6096 0.635,-0.931334 1.30387,-0.931334 0.69427,0 1.15147,0.330201 1.2954,0.931334 z m 5.64727,2.836335 h 0.89746 l 1.88807,-4.690536 h -1.27 l -1.0668,3.107268 -1.08373,-3.107268 h -1.25307 z m 7.70467,-1.845734 c 0.0339,-0.169334 0.0423,-0.270934 0.0423,-0.440267 0,-1.447801 -1.02446,-2.514601 -2.42147,-2.514601 -1.38006,0 -2.47226,1.0922 -2.47226,2.472267 0,1.371601 1.10913,2.438401 2.54,2.438401 0.77047,0 1.3716,-0.2794 1.86267,-0.846667 0.1778,-0.220133 0.29633,-0.414866 0.37253,-0.651933 h -1.22767 c -0.28786,0.338667 -0.56727,0.465667 -1.03293,0.465667 -0.66887,0 -1.15994,-0.355601 -1.2954,-0.922867 z m -3.66607,-0.990601 c 0.1778,-0.6096 0.635,-0.931334 1.30387,-0.931334 0.69426,0 1.15147,0.330201 1.2954,0.931334 z m 4.44499,2.836335 h 1.12607 v -6.256869 h -1.12607 z m 4.30953,-4.800602 c -1.36313,0 -2.48073,1.109134 -2.48073,2.455334 0,1.354667 1.1176,2.455334 2.4892,2.455334 1.36313,0 2.49767,-1.100667 2.49767,-2.421467 0,-1.397001 -1.0922,-2.489201 -2.50614,-2.489201 z m 0.008,1.032933 c 0.75353,0 1.36313,0.635001 1.36313,1.422401 0,0.7874 -0.6096,1.422401 -1.35466,1.422401 -0.762,0 -1.36314,-0.635001 -1.36314,-1.439334 0,-0.770467 0.6096,-1.405468 1.35467,-1.405468 z m 3.13266,5.334003 h 1.12607 v -2.006601 c 0.4318,0.381 0.8636,0.550333 1.43933,0.550333 1.35467,0 2.34527,-1.049867 2.34527,-2.472267 0,-1.413934 -0.98213,-2.438401 -2.32833,-2.438401 -0.64347,0 -1.18534,0.2286 -1.5494,0.6604 v -0.550334 h -1.03294 z m 2.42994,-5.334003 c 0.762,0 1.3462,0.618067 1.3462,1.430868 0,0.795867 -0.5842,1.413934 -1.32927,1.413934 -0.79587,0 -1.38853,-0.609601 -1.38853,-1.430868 0,-0.804333 0.59266,-1.413934 1.3716,-1.413934 z m 7.80626,1.921935 c 0.0339,-0.169334 0.0423,-0.270934 0.0423,-0.440267 0,-1.447801 -1.02446,-2.514601 -2.42146,-2.514601 -1.38007,0 -2.47227,1.0922 -2.47227,2.472267 0,1.371601 1.10913,2.438401 2.54,2.438401 0.77047,0 1.3716,-0.2794 1.86267,-0.846667 0.1778,-0.220133 0.29633,-0.414866 0.37253,-0.651933 h -1.22767 c -0.28786,0.338667 -0.56726,0.465667 -1.03293,0.465667 -0.66887,0 -1.15993,-0.355601 -1.2954,-0.922867 z m -3.66607,-0.990601 c 0.1778,-0.6096 0.635,-0.931334 1.30387,-0.931334 0.69427,0 1.15147,0.330201 1.2954,0.931334 z m 4.43653,2.836335 h 1.12607 v -2.607735 c -0.0254,-0.694267 0.3302,-1.083733 1.00753,-1.109133 v -1.083734 h -0.0847 c -0.4826,0 -0.71967,0.135466 -1.016,0.567267 v -0.457201 h -1.03294 z"
           id="path4" />
      </g>
    </g>
  </g>
</svg>
